<svg xmlns="http://www.w3.org/2000/svg" viewBox="0 0 32 32" role="img" aria-label="Cloud FinOps">
  <rect width="32" height="32" rx="8" fill="#FFBE5C"/>
  <path fill="#1A1A1A" d="M13.2 9.2c-3.55 0-6.05 2.55-6.05 6.8s2.5 6.8 6.05 6.8c1.85 0 3.35-.7 4.4-1.85l-1.55-1.55c-.7.75-1.65 1.2-2.8 1.2-2.15 0-3.55-1.65-3.55-4.6s1.4-4.6 3.55-4.6c1.15 0 2.1.45 2.8 1.2l1.55-1.55c-1.05-1.15-2.55-1.85-4.4-1.85z"/>
  <path fill="#1A1A1A" d="M17.1 9.55h7.1v2.35h-4.55v2.55h3.95v2.3h-3.95V22.4h-2.55V9.55z"/>
</svg>
